<svg xmlns="http://www.w3.org/2000/svg" xmlns:xlink="http://www.w3.org/1999/xlink" version="1.1" id="Layer_1" x="0px" y="0px" width="100px" height="100px" viewBox="0 0 100 100" enable-background="new 0 0 100 100" xml:space="preserve">
<path fill="#000000" d="M99.993,52.227c-0.433-12.972-5.801-25.099-15.126-34.164C75.938,9.381,64.298,4.416,51.914,3.953V3.931  C51.914,2.865,51.049,2,49.983,2c-1.066,0-1.931,0.865-1.931,1.931v0.025C21.381,4.989,0,27.005,0,53.926  c0,0.96,0.79,1.738,1.75,1.738c0.934,0,1.7-0.738,1.737-1.671c0.217-5.571,4.757-9.937,10.337-9.937  c5.578,0,10.119,4.365,10.336,9.937c0.037,0.933,0.827,1.671,1.761,1.671c0.933,0,1.699-0.738,1.736-1.671  c0.218-5.571,4.758-9.937,10.337-9.937c4.738,0,8.726,3.082,9.953,7.443c0.044,0.154,0.122,2.394,0.122,3.037  c0.001,12.103,0,28.475-0.006,31.587c-0.002,1.096-0.161,2.556-0.236,2.855c-0.903,3.133-3.828,5.321-7.112,5.321  c-4.046,0-7.338-3.293-7.338-7.338c0-1.322,0.355-2.618,1.027-3.747c0.545-0.916,0.245-2.101-0.671-2.647  c-0.917-0.545-2.103-0.244-2.647,0.672c-1.027,1.727-1.571,3.705-1.571,5.723c0,6.176,5.025,11.199,11.2,11.199  c4.995,0,9.445-3.334,10.821-8.113c0.237-0.818,0.386-2.834,0.388-3.918c0.006-3.109,0.008-19.715,0.006-31.594  c0-0.419,0.217-2.748,0.3-3.037c1.25-4.327,5.222-7.443,9.935-7.443c5.579,0,10.12,4.365,10.337,9.937  c0.037,0.933,0.805,1.671,1.738,1.671h0.025c0.932,0,1.699-0.738,1.734-1.671c0.217-5.571,4.758-9.937,10.336-9.937  c5.1,0,9.394,3.647,10.212,8.67c0.139,0.855,0.889,1.462,1.736,1.459c0.953-0.006,1.724-0.781,1.724-1.736  C100.007,52.373,100.001,52.299,99.993,52.227z"/>
</svg>